<?xml version="1.0" encoding="UTF-8" standalone="no"?>
<!-- Created with Inkscape (http://www.inkscape.org/) -->

<svg
   xmlns:dc="http://purl.org/dc/elements/1.1/"
   xmlns:cc="http://creativecommons.org/ns#"
   xmlns:rdf="http://www.w3.org/1999/02/22-rdf-syntax-ns#"
   xmlns:svg="http://www.w3.org/2000/svg"
   xmlns="http://www.w3.org/2000/svg"
   xmlns:sodipodi="http://sodipodi.sourceforge.net/DTD/sodipodi-0.dtd"
   xmlns:inkscape="http://www.inkscape.org/namespaces/inkscape"
   width="320"
   height="82"
   viewBox="0 0 320 82.000001"
   id="svg2"
   version="1.1"
   inkscape:version="0.91 r13725"
   sodipodi:docname="fvacanceslogo.svg"
   inkscape:export-filename="C:\Users\Marcin\Source\Repos\France Vacances\France_Vacances\France_Vacances\Assets\Images\fvacanceslogo.png"
   inkscape:export-xdpi="221.67488"
   inkscape:export-ydpi="221.67488">
  <defs
     id="defs4">
    <inkscape:path-effect
       effect="spiro"
       id="path-effect4231"
       is_visible="true" />
    <inkscape:path-effect
       effect="spiro"
       id="path-effect4227"
       is_visible="true" />
    <inkscape:path-effect
       effect="spiro"
       id="path-effect5143"
       is_visible="true" />
    <inkscape:path-effect
       effect="spiro"
       id="path-effect5123"
       is_visible="true" />
    <inkscape:path-effect
       effect="spiro"
       id="path-effect5115"
       is_visible="true" />
    <inkscape:path-effect
       effect="spiro"
       id="path-effect5099"
       is_visible="true" />
    <inkscape:path-effect
       effect="spiro"
       id="path-effect5087"
       is_visible="true" />
    <inkscape:path-effect
       effect="spiro"
       id="path-effect5055"
       is_visible="true" />
    <inkscape:path-effect
       effect="spiro"
       id="path-effect5047"
       is_visible="true" />
    <inkscape:path-effect
       effect="spiro"
       id="path-effect5035"
       is_visible="true" />
    <inkscape:path-effect
       effect="spiro"
       id="path-effect5027"
       is_visible="true" />
    <inkscape:path-effect
       effect="spiro"
       id="path-effect5015"
       is_visible="true" />
    <inkscape:path-effect
       effect="spiro"
       id="path-effect4975"
       is_visible="true" />
    <inkscape:path-effect
       effect="spiro"
       id="path-effect4947"
       is_visible="true" />
    <inkscape:path-effect
       effect="spiro"
       id="path-effect4903"
       is_visible="true" />
    <inkscape:path-effect
       effect="spiro"
       id="path-effect4889"
       is_visible="true" />
    <inkscape:path-effect
       effect="spiro"
       id="path-effect4813"
       is_visible="true" />
    <inkscape:path-effect
       effect="spiro"
       id="path-effect4805"
       is_visible="true" />
    <inkscape:path-effect
       effect="spiro"
       id="path-effect4761"
       is_visible="true" />
    <inkscape:path-effect
       effect="spiro"
       id="path-effect4733"
       is_visible="true" />
    <inkscape:path-effect
       effect="spiro"
       id="path-effect4725"
       is_visible="true" />
    <inkscape:path-effect
       effect="spiro"
       id="path-effect4709"
       is_visible="true" />
    <inkscape:path-effect
       effect="spiro"
       id="path-effect4705"
       is_visible="true" />
    <inkscape:path-effect
       effect="spiro"
       id="path-effect4725-7"
       is_visible="true" />
  </defs>
  <sodipodi:namedview
     id="base"
     pagecolor="#ffffff"
     bordercolor="#666666"
     borderopacity="1.0"
     inkscape:pageopacity="0.0"
     inkscape:pageshadow="2"
     inkscape:zoom="1.979899"
     inkscape:cx="172.94145"
     inkscape:cy="77.213984"
     inkscape:document-units="px"
     inkscape:current-layer="layer2"
     showgrid="false"
     units="px"
     inkscape:window-width="1366"
     inkscape:window-height="715"
     inkscape:window-x="-8"
     inkscape:window-y="-8"
     inkscape:window-maximized="1" />
  <metadata
     id="metadata7">
    <rdf:RDF>
      <cc:Work
         rdf:about="">
        <dc:format>image/svg+xml</dc:format>
        <dc:type
           rdf:resource="http://purl.org/dc/dcmitype/StillImage" />
        <dc:title></dc:title>
      </cc:Work>
    </rdf:RDF>
  </metadata>
  <g
     inkscape:groupmode="layer"
     id="layer2"
     inkscape:label="Layer 2"
     style="display:inline">
    <flowRoot
       xml:space="preserve"
       id="flowRoot3371"
       style="font-style:normal;font-weight:normal;font-size:40px;line-height:125%;font-family:sans-serif;letter-spacing:0px;word-spacing:0px;fill:#000000;fill-opacity:1;stroke:none;stroke-width:1px;stroke-linecap:butt;stroke-linejoin:miter;stroke-opacity:1"><flowRegion
         id="flowRegion3373"><rect
           id="rect3375"
           width="160.61426"
           height="42.931484"
           x="37.375645"
           y="8.2588644" /></flowRegion><flowPara
         id="flowPara3377" /></flowRoot>    <text
       xml:space="preserve"
       style="font-style:normal;font-weight:normal;font-size:46.03661728px;line-height:0%;font-family:sans-serif;letter-spacing:-2.76999998px;word-spacing:0px;fill:#075ca1;fill-opacity:1;stroke:none;stroke-width:1px;stroke-linecap:butt;stroke-linejoin:miter;stroke-opacity:1"
       x="42.883789"
       y="43.26421"
       id="text3379"
       sodipodi:linespacing="0%"><tspan
         sodipodi:role="line"
         id="tspan3381"
         x="42.883789"
         y="43.26421"
         style="font-style:italic;font-variant:normal;font-weight:bold;font-stretch:normal;font-size:51.79119492px;font-family:'Core Sans G Rounded';-inkscape-font-specification:'Core Sans G Rounded Bold Italic';letter-spacing:-2.76999998px;fill:#075ca1;fill-opacity:1"
         dx="0">F<tspan
   style="font-size:50px;line-height:0%;fill:#075ca1;fill-opacity:1"
   id="tspan3383"
   dy="-2.1200008"
   dx="1.5400001">rance</tspan></tspan></text>
    <flowRoot
       xml:space="preserve"
       id="flowRoot3385"
       style="font-style:normal;font-weight:normal;font-size:40px;line-height:125%;font-family:sans-serif;letter-spacing:0px;word-spacing:0px;fill:#000000;fill-opacity:1;stroke:none;stroke-width:1px;stroke-linecap:butt;stroke-linejoin:miter;stroke-opacity:1"><flowRegion
         id="flowRegion3387"><rect
           id="rect3389"
           width="205.56604"
           height="42.931484"
           x="9.0913725"
           y="40.078671" /></flowRegion><flowPara
         id="flowPara3391">Vac</flowPara></flowRoot>    <text
       xml:space="preserve"
       style="font-style:normal;font-weight:normal;font-size:56.76692581px;line-height:125%;font-family:sans-serif;letter-spacing:0px;word-spacing:0px;fill:#075ca1;fill-opacity:1;stroke:none;stroke-width:1px;stroke-linecap:butt;stroke-linejoin:miter;stroke-opacity:1"
       x="-3.8646679"
       y="79.203636"
       id="text3393"
       sodipodi:linespacing="125%"><tspan
         sodipodi:role="line"
         id="tspan3395"
         x="-3.8646679"
         y="79.203636"
         style="font-style:italic;font-variant:normal;font-weight:bold;font-stretch:normal;font-family:'Core Sans G Rounded';-inkscape-font-specification:'Core Sans G Rounded Bold Italic';letter-spacing:-4.2599988px;fill:#075ca1;fill-opacity:1"><tspan
   style="letter-spacing:-4.05999517px;fill:#075ca1;fill-opacity:1"
   id="tspan3397"><tspan
   style="letter-spacing:-4.08999777px;fill:#075ca1;fill-opacity:1"
   id="tspan3577">Va</tspan>ca</tspan>nces</tspan></text>
    <path
       style="fill:none;fill-rule:evenodd;stroke:#075ca1;stroke-width:3.79999995;stroke-linecap:round;stroke-linejoin:miter;stroke-miterlimit:4;stroke-dasharray:none;stroke-opacity:1"
       d="m 224.19643,68.25 c 1.13935,-1.970127 2.78365,-3.645453 4.73214,-4.821428 2.72797,-1.646414 5.98184,-2.285158 9.16747,-2.219777 3.18562,0.06538 6.32253,0.802312 9.36521,1.748132 6.08536,1.891641 12.05974,4.661217 18.43161,4.757359 0.92324,0.01393 1.84646,-0.02911 2.76785,-0.08929 1.4337,-0.09364 2.86553,-0.228902 4.28572,-0.446428 2.38192,-0.364829 4.73377,-0.963156 6.96428,-1.875 3.31682,-1.355933 6.34756,-3.407045 8.83929,-5.982143"
       id="path4723"
       inkscape:original-d="m 224.19643,68.25 c 0.53744,-2.754354 3.08381,-3.173099 4.73214,-4.821428 9.51988,-9.519877 25.14379,4.285714 36.96429,4.285714 0.59005,0 2.42753,0.251033 2.76785,-0.08929 0.78869,-0.78869 3.49703,0.342262 4.28572,-0.446428 1.43867,-1.438676 5.47458,-0.385297 6.96428,-1.875 2.56777,-2.567767 6.59635,-2.991563 8.83929,-5.982143"
       inkscape:connector-curvature="0"
       inkscape:path-effect="#path-effect4725" />
    <path
       style="display:inline;fill:none;fill-rule:evenodd;stroke:#129ad6;stroke-width:3.79999995;stroke-linecap:round;stroke-linejoin:miter;stroke-miterlimit:4;stroke-dasharray:none;stroke-opacity:1"
       d="m 223.88132,78.158741 c 1.13935,-1.970127 2.78365,-3.645453 4.73214,-4.821428 2.72797,-1.646414 5.98184,-2.285158 9.16747,-2.219777 3.18562,0.06538 6.32253,0.802312 9.36521,1.748132 6.08536,1.891641 12.05974,4.661217 18.43161,4.757359 0.92324,0.01393 1.84646,-0.02911 2.76785,-0.08929 1.4337,-0.09364 2.86553,-0.228902 4.28572,-0.446428 2.38192,-0.364829 4.73377,-0.963156 6.96428,-1.875 3.31682,-1.355933 6.34756,-3.407045 8.83929,-5.982143"
       id="path4723-2"
       inkscape:original-d="m 223.88132,78.158741 c 0.53744,-2.754354 3.08381,-3.173099 4.73214,-4.821428 9.51988,-9.519877 25.14379,4.285714 36.96429,4.285714 0.59005,0 2.42753,0.251033 2.76785,-0.08929 0.78869,-0.78869 3.49703,0.342262 4.28572,-0.446428 1.43867,-1.438676 5.47458,-0.385297 6.96428,-1.875 2.56777,-2.567767 6.59635,-2.991563 8.83929,-5.982143"
       inkscape:connector-curvature="0"
       inkscape:transform-center-x="3.3954738"
       inkscape:transform-center-y="-5.8055468"
       inkscape:path-effect="#path-effect4725-7" />
    <path
       style="fill:none;fill-rule:evenodd;stroke:#188941;stroke-width:1.70000005;stroke-linecap:round;stroke-linejoin:miter;stroke-miterlimit:4;stroke-dasharray:none;stroke-opacity:1"
       d="m 294.11223,58.955895 c 0.38604,-0.06214 0.77698,-0.09384 1.16799,-0.0947 0.16887,-3.72e-4 0.3383,0.005 0.50507,0.03157 0.26381,0.04195 0.51727,0.136085 0.78133,0.176501 0.13202,0.02021 0.26708,0.02679 0.39906,0.0063 0.13198,-0.02051 0.26109,-0.06906 0.36641,-0.151202 0.10988,-0.0857 0.19053,-0.20545 0.24156,-0.335123 0.051,-0.129673 0.0736,-0.269205 0.08,-0.408413 0.0128,-0.278415 -0.0377,-0.55612 -0.0374,-0.834828 1.5e-4,-0.189731 0.0238,-0.37864 0.0316,-0.56821 0.006,-0.147212 0.003,-0.294628 0,-0.441942 -0.0123,-0.694392 -0.006,-1.388963 0,-2.08344 0.004,-0.515594 0.008,-1.031248 0,-1.546796 -0.0148,-0.936611 -0.0691,-1.873509 -0.0316,-2.809487 0.0101,-0.252564 0.0269,-0.504891 0.0316,-0.757614 0.005,-0.289742 -0.002,-0.592623 0.12627,-0.852316 0.0703,-0.141933 0.17736,-0.261803 0.28411,-0.378807 0.0654,-0.07171 0.1317,-0.143504 0.20925,-0.201891 0.0775,-0.05839 0.16777,-0.103211 0.26426,-0.113782 0.0419,-0.0046 0.0842,-0.0027 0.12626,0 0.56188,0.03588 1.10467,0.209087 1.6415,0.378807 0.16818,0.05317 0.33644,0.106129 0.50508,0.157836 0.23579,0.0723 0.47368,0.142676 0.69448,0.252539 0.28298,0.140802 0.53249,0.343845 0.82075,0.473509 0.15507,0.06976 0.31948,0.117373 0.47351,0.189403 0.21663,0.101305 0.40786,0.248474 0.60269,0.387161 0.19483,0.138688 0.39889,0.271781 0.62843,0.338886 0.0736,0.0215 0.14927,0.03607 0.22097,0.06313 0.14272,0.05386 0.26224,0.154154 0.37881,0.252538 0.19011,0.160446 0.38199,0.321722 0.59978,0.441942 0.0792,0.0437 0.16298,0.08224 0.25253,0.0947 0.0508,0.0071 0.10332,0.0057 0.15227,0.02123 0.0245,0.0078 0.0479,0.01986 0.0664,0.0377 0.0184,0.01785 0.0316,0.04177 0.0339,0.06734 0.002,0.021 -0.004,0.04234 0,0.06313 0.004,0.02123 0.0166,0.04029 0.0337,0.05336 0.0171,0.01307 0.0381,0.02046 0.0595,0.02339 0.0427,0.0059 0.0855,-0.0054 0.12783,-0.01361 0.26078,-0.05074 0.52992,0.01294 0.78223,0.09613 0.25231,0.08319 0.5009,0.18696 0.76457,0.219542 0.26316,0.03252 0.52991,-0.0075 0.78918,-0.06313 0.35517,-0.07621 0.704,-0.181912 1.04172,-0.315673 m 0.41035,-0.157842 c -0.0232,-1.189267 -0.002,-2.379399 0.0631,-3.567101 0.0226,-0.411015 0.0505,-0.821871 0.0947,-1.231124 0.0421,-0.389396 0.0983,-0.788863 0,-1.167989 -0.0167,-0.06446 -0.0378,-0.127794 -0.0631,-0.189403 m 0.31567,1.294258 c 0.55209,0.109943 1.11136,0.183809 1.67306,0.22097 0.24173,0.01599 0.48387,0.02519 0.72605,0.03157 0.37582,0.0099 0.76818,0.0095 1.10486,-0.157837 0.16214,-0.08056 0.30632,-0.199078 0.41037,-0.34724 0.16226,-0.231039 0.21992,-0.52231 0.21597,-0.804606 -0.004,-0.282296 -0.0651,-0.56022 -0.12127,-0.836891 -0.009,-0.04256 -0.0172,-0.08529 -0.0316,-0.126269 -0.0467,-0.13311 -0.15227,-0.239195 -0.27263,-0.312762 -0.12036,-0.07357 -0.25581,-0.118168 -0.39029,-0.160747 -0.0858,-0.02717 -0.17227,-0.05396 -0.25254,-0.0947 -0.19041,-0.09663 -0.33328,-0.264578 -0.46696,-0.431076 -0.13368,-0.166497 -0.26749,-0.339527 -0.44849,-0.452808 -0.0679,-0.04248 -0.14119,-0.07571 -0.2092,-0.117978 -0.068,-0.04227 -0.13205,-0.0954 -0.1696,-0.166127 -0.0221,-0.04165 -0.0347,-0.08866 -0.0631,-0.126269 -0.0248,-0.03283 -0.0602,-0.05625 -0.0974,-0.07391 -0.0372,-0.01766 -0.0766,-0.03012 -0.11489,-0.04516 -0.0383,-0.01504 -0.0761,-0.03303 -0.10721,-0.06003 -0.0311,-0.027 -0.055,-0.06407 -0.0593,-0.105009 -0.002,-0.02095 8.1e-4,-0.04209 0,-0.06313 -0.002,-0.05302 -0.0285,-0.103245 -0.066,-0.140751 -0.0375,-0.03751 -0.0854,-0.06324 -0.13515,-0.08173 -0.0995,-0.03697 -0.2084,-0.04691 -0.30388,-0.0932 -0.12187,-0.05908 -0.2089,-0.170828 -0.28472,-0.283061 -0.0758,-0.112232 -0.14701,-0.23107 -0.25193,-0.316717 -0.0736,-0.06004 -0.16046,-0.100991 -0.24149,-0.150499 -0.081,-0.04951 -0.15931,-0.111161 -0.20045,-0.196741 -0.0301,-0.06261 -0.0382,-0.133732 -0.0658,-0.197479 -0.0138,-0.03187 -0.0328,-0.0621 -0.0593,-0.08452 -0.0265,-0.02241 -0.0612,-0.03643 -0.0958,-0.03368 -0.0106,8.47e-4 -0.0211,0.0032 -0.0317,0.0042 -0.0106,9.75e-4 -0.0217,4.49e-4 -0.0314,-0.0042 -0.007,-0.0033 -0.0125,-0.0085 -0.0169,-0.01471 -0.004,-0.0062 -0.007,-0.01324 -0.009,-0.02054 -0.004,-0.0146 -0.003,-0.02993 -0.003,-0.04502 1.6e-4,-0.0151 5e-5,-0.03049 -0.005,-0.04485 -0.002,-0.0072 -0.006,-0.01403 -0.0107,-0.0198 -0.005,-0.0058 -0.0111,-0.01043 -0.0183,-0.01292 -0.01,-0.0035 -0.021,-0.0026 -0.0315,-0.0012 -0.0105,0.0014 -0.0212,0.0031 -0.0316,0.0012 -0.007,-0.0014 -0.0145,-0.0046 -0.0206,-0.0091 -0.006,-0.0045 -0.0112,-0.01021 -0.0154,-0.01656 -0.008,-0.01269 -0.0123,-0.02767 -0.0144,-0.04266 -0.002,-0.01499 -0.002,-0.03016 -0.004,-0.04525 -0.001,-0.01508 -0.003,-0.03028 -0.009,-0.04426 -0.008,-0.01937 -0.0227,-0.03544 -0.0394,-0.04814 -0.0167,-0.0127 -0.0355,-0.02233 -0.0542,-0.03177 -0.0187,-0.0094 -0.0376,-0.01884 -0.0546,-0.03115 -0.017,-0.01231 -0.0322,-0.0278 -0.0411,-0.04678 -0.007,-0.01584 -0.0103,-0.03347 -0.0115,-0.05094 -0.001,-0.01747 -7.7e-4,-0.03503 -0.002,-0.0525 -0.001,-0.01746 -0.004,-0.03507 -0.0122,-0.05075 -0.008,-0.01568 -0.0208,-0.02934 -0.0373,-0.03521 -0.01,-0.0036 -0.0208,-0.0041 -0.0314,-0.0035 -0.0106,6.3e-4 -0.0211,0.0024 -0.0317,0.0035 -0.0625,0.0064 -0.12638,-0.01334 -0.1772,-0.05018 -0.0508,-0.03684 -0.0888,-0.08999 -0.1117,-0.148441 -0.0458,-0.116909 -0.0314,-0.249379 0.005,-0.369588 0.0205,-0.06808 0.0485,-0.135353 0.0947,-0.189404 0.064,-0.0749 0.15942,-0.118825 0.25699,-0.132586 0.0976,-0.01376 0.19738,6.72e-4 0.29209,0.02785 0.18943,0.05436 0.36291,0.158933 0.55577,0.199436 0.18609,0.03908 0.37876,0.01625 0.56821,0 0.50378,-0.04322 1.01108,-0.03868 1.51523,0 0.50932,0.03907 1.01596,0.112958 1.51523,0.220971 m 0.50487,-6e-6 c 0.0387,-0.347634 0.0808,-0.694895 0.12627,-1.04172 0.0206,-0.157115 0.0419,-0.315386 0.0316,-0.473509 -0.008,-0.117585 -0.0327,-0.233392 -0.0631,-0.34724 -0.0661,-0.247721 -0.15758,-0.487886 -0.25254,-0.726047 -0.0297,-0.07445 -0.0598,-0.148833 -0.0947,-0.220971 -0.13782,-0.284546 -0.34923,-0.530034 -0.47351,-0.820749 -0.0353,-0.08268 -0.0633,-0.168281 -0.0947,-0.252538 -0.0551,-0.147808 -0.1214,-0.29266 -0.21355,-0.420682 -0.0922,-0.128023 -0.21152,-0.239101 -0.35466,-0.305365 -0.0428,-0.0198 -0.0879,-0.03578 -0.12627,-0.06313 -0.0527,-0.03753 -0.0888,-0.09367 -0.12007,-0.150327 -0.0312,-0.05665 -0.0593,-0.115845 -0.1009,-0.165346 -0.0586,-0.06966 -0.14007,-0.115408 -0.21992,-0.159137 -0.0798,-0.04373 -0.16171,-0.08834 -0.22202,-0.156536 -0.035,-0.03957 -0.0615,-0.08574 -0.0896,-0.13044 -0.0281,-0.0447 -0.0587,-0.0889 -0.0998,-0.122098 -0.0551,-0.04453 -0.12465,-0.06597 -0.1894,-0.0947 -0.15827,-0.07022 -0.292,-0.186877 -0.40703,-0.316293 -0.11504,-0.129416 -0.21345,-0.272512 -0.31902,-0.409754 -0.10024,-0.130302 -0.20702,-0.255433 -0.31567,-0.378807 -0.1735,-0.197008 -0.35434,-0.393306 -0.46866,-0.629624 -0.0572,-0.118158 -0.0968,-0.245764 -0.10653,-0.376661 -0.01,-0.130898 0.0115,-0.265252 0.0701,-0.382675 0.0438,-0.08772 0.10859,-0.165451 0.18941,-0.220971 0.11072,-0.07606 0.24577,-0.107692 0.3788,-0.126269 0.29376,-0.04102 0.59533,-0.02604 0.88389,-0.0947 0.23035,-0.05481 0.44451,-0.16106 0.66291,-0.252538 0.0534,-0.02236 0.10732,-0.04397 0.15717,-0.07336 0.0498,-0.02939 0.0959,-0.0672 0.12693,-0.116038 0.0272,-0.04273 0.0418,-0.09201 0.0625,-0.138208 0.0104,-0.0231 0.0224,-0.04561 0.0379,-0.0656 0.0155,-0.01998 0.0348,-0.03743 0.0574,-0.04874 0.0298,-0.01488 0.064,-0.01854 0.0947,-0.03157 0.0331,-0.01405 0.061,-0.03878 0.0819,-0.06806 0.0208,-0.02928 0.0349,-0.06299 0.0444,-0.09766 0.019,-0.06933 0.0202,-0.142138 0.0316,-0.213095 0.0138,-0.0857 0.0425,-0.168199 0.0631,-0.252538 0.0276,-0.11339 0.0405,-0.230871 0.0316,-0.34724 -0.0124,-0.161238 -0.0661,-0.316931 -0.1361,-0.462727 -0.07,-0.145795 -0.15612,-0.283096 -0.23776,-0.422684 -0.0816,-0.139588 -0.15933,-0.282689 -0.2105,-0.436089 -0.0512,-0.1534 -0.075,-0.318575 -0.047,-0.477834 0.004,-0.02331 0.009,-0.04693 0.006,-0.07041 -0.001,-0.01174 -0.005,-0.02334 -0.0114,-0.03333 -0.006,-0.01 -0.0156,-0.01829 -0.0266,-0.02253 -0.01,-0.0038 -0.0208,-0.0042 -0.0314,-0.0034 -0.0106,7.79e-4 -0.0211,0.0027 -0.0317,0.0034 -0.0263,0.0018 -0.0532,-0.0039 -0.0764,-0.01636 -0.0233,-0.01245 -0.043,-0.03157 -0.0561,-0.0545 -0.0131,-0.02292 -0.0196,-0.04958 -0.0185,-0.07596 0.001,-0.02638 0.01,-0.0524 0.0247,-0.07416 m -0.15791,0.03156 c -0.1371,-0.254146 -0.36422,-0.458547 -0.63135,-0.568211 -0.0656,-0.02693 -0.13501,-0.04921 -0.1894,-0.0947 -0.0439,-0.0367 -0.075,-0.08618 -0.10253,-0.13633 -0.0275,-0.05015 -0.0524,-0.102148 -0.0869,-0.147776 -0.0707,-0.09344 -0.17577,-0.153027 -0.27315,-0.218138 -0.0487,-0.03256 -0.0963,-0.06727 -0.13743,-0.108997 -0.0411,-0.04173 -0.0757,-0.09091 -0.0945,-0.146374 -0.014,-0.0411 -0.019,-0.08472 -0.0316,-0.126269 -0.0282,-0.09314 -0.0929,-0.171567 -0.16745,-0.234126 -0.0745,-0.06256 -0.15941,-0.111343 -0.24139,-0.163779 -0.082,-0.05244 -0.16255,-0.109816 -0.22384,-0.185408 -0.0613,-0.07559 -0.10199,-0.172072 -0.0934,-0.269003 0.002,-0.02331 0.007,-0.04665 0.004,-0.06992 -0.001,-0.01163 -0.004,-0.02318 -0.0104,-0.03326 -0.006,-0.01007 -0.0148,-0.01861 -0.0256,-0.02309 -0.01,-0.0041 -0.0208,-0.0047 -0.0314,-0.0039 -0.0106,7.71e-4 -0.0211,0.0028 -0.0317,0.0039 -0.051,0.0051 -0.1027,-0.01422 -0.14228,-0.04675 -0.0396,-0.03253 -0.0678,-0.07739 -0.0863,-0.125134 -0.0372,-0.09549 -0.0375,-0.20074 -0.0555,-0.301625 -0.009,-0.05283 -0.0238,-0.104746 -0.0316,-0.157837 -0.0241,-0.163085 0.0153,-0.331775 0.0927,-0.47734 0.0774,-0.145565 0.19105,-0.269402 0.31766,-0.374976 0.41593,-0.346833 0.97429,-0.499669 1.51522,-0.473509 0.0316,0.0015 0.0633,0.0036 0.0947,0 0.0449,-0.0052 0.088,-0.02206 0.12599,-0.0465 0.038,-0.02444 0.0709,-0.0563 0.0987,-0.09187 0.0556,-0.07113 0.0907,-0.15592 0.12254,-0.24044 0.0505,-0.13404 0.0947,-0.270662 0.12626,-0.410374 0.0515,-0.228031 0.069,-0.462121 0.0947,-0.69448 0.0244,-0.220384 0.0564,-0.442576 0.0316,-0.662913 -0.0209,-0.186013 -0.082,-0.365484 -0.15783,-0.536644 -0.0381,-0.08609 -0.0801,-0.170509 -0.12627,-0.252538 -0.11094,-0.196907 -0.24707,-0.380409 -0.41038,-0.536643 -0.28148,-0.269285 -0.63393,-0.449786 -0.97858,-0.631346 -0.18373,-0.09679 -0.36849,-0.195648 -0.56821,-0.252538 -0.35616,-0.101448 -0.73454,-0.06331 -1.10486,-0.06313 -0.22103,1.05e-4 -0.4423,-0.01363 -0.66291,0 -0.41931,0.02591 -0.82546,0.149773 -1.22864,0.267842 -0.40318,0.118069 -0.81353,0.232033 -1.23361,0.237234 -0.13681,0.0017 -0.2738,-0.0082 -0.41037,0 -0.12339,0.0074 -0.24904,0.02938 -0.36917,2.56e-4 -0.0601,-0.01456 -0.1179,-0.04246 -0.16142,-0.08634 -0.0435,-0.04388 -0.0716,-0.104691 -0.0692,-0.16645 8.2e-4,-0.02112 0.005,-0.04261 0,-0.06313 -0.005,-0.02036 -0.019,-0.03786 -0.0365,-0.04945 -0.0175,-0.01159 -0.0382,-0.01761 -0.059,-0.01993 -0.0417,-0.0046 -0.0835,0.005 -0.12544,0.0062 -0.0872,0.0027 -0.17255,-0.03118 -0.24404,-0.08113 -0.0715,-0.04996 -0.13065,-0.115401 -0.18639,-0.182486 -0.0557,-0.06708 -0.10893,-0.136639 -0.17139,-0.197502 -0.0625,-0.06086 -0.13547,-0.11335 -0.21893,-0.138657 -0.0415,-0.01259 -0.085,-0.01827 -0.12627,-0.03157 -0.0757,-0.02438 -0.14142,-0.07356 -0.19696,-0.130506 -0.0556,-0.05694 -0.10205,-0.121905 -0.15028,-0.185167 -0.0868,-0.113908 -0.18025,-0.22359 -0.25254,-0.34724 -0.0713,-0.121911 -0.1208,-0.255373 -0.1894,-0.378807 -0.0876,-0.157622 -0.20629,-0.297889 -0.34724,-0.410375 m -0.25251,-0.473519 c -0.33934,-0.05562 -0.64474,-0.28772 -0.78918,-0.599778 -0.0295,-0.06373 -0.0528,-0.130734 -0.0906,-0.189958 -0.0189,-0.02961 -0.0414,-0.05717 -0.0685,-0.07944 -0.0271,-0.02227 -0.0591,-0.03915 -0.0935,-0.04627 -0.0285,-0.0059 -0.0583,-0.0059 -0.0861,-0.01482 -0.0139,-0.0045 -0.0271,-0.01101 -0.039,-0.01941 -0.0119,-0.0084 -0.0224,-0.01859 -0.0327,-0.0289 l -0.25254,-0.252538 c -0.008,-0.0081 -0.0162,-0.01648 -0.0226,-0.02609 -0.006,-0.0096 -0.011,-0.0204 -0.0133,-0.03168 -0.002,-0.01128 -0.002,-0.02294 -0.001,-0.0344 0.001,-0.01146 0.004,-0.02276 0.006,-0.03411 0.0174,-0.09845 0.006,-0.201158 -0.0273,-0.295362 -0.0335,-0.0942 -0.0888,-0.180009 -0.15702,-0.25312 -0.13641,-0.146223 -0.32074,-0.239676 -0.51014,-0.303834 -0.063,-0.02135 -0.12707,-0.0398 -0.1894,-0.06314 -0.24262,-0.09084 -0.4531,-0.253144 -0.69448,-0.34724 -0.21782,-0.08491 -0.45405,-0.111564 -0.68772,-0.118712 -0.23368,-0.0071 -0.46776,0.0044 -0.70124,-0.0076 -0.32668,-0.01677 -0.65501,-0.07949 -0.97859,-0.03157 -0.14213,0.02105 -0.28115,0.06346 -0.41037,0.126269 -0.24086,0.117059 -0.44151,0.300822 -0.6575,0.459128 -0.108,0.07915 -0.22097,0.152601 -0.3432,0.207267 -0.12223,0.05466 -0.25437,0.09024 -0.38826,0.09122 -0.0316,2.31e-4 -0.0632,-0.0015 -0.0947,0 -0.1554,0.0071 -0.29922,0.09049 -0.41109,0.198598 -0.11187,0.108104 -0.19672,0.240422 -0.28339,0.369613 -0.10087,0.150364 -0.20559,0.298187 -0.31568,0.441942 -0.2313,0.302043 -0.48611,0.585827 -0.75761,0.852316 -0.18876,0.185274 -0.39005,0.365201 -0.63135,0.473509 -0.0821,0.03683 -0.16769,0.06487 -0.25253,0.0947 -0.34107,0.119903 -0.68041,0.271415 -1.04172,0.284105 -0.0526,0.0018 -0.10523,7.07e-4 -0.15784,0 -0.72671,-0.0098 -1.45753,0.06292 -2.17814,-0.03157 -0.1579,-0.02071 -0.31485,-0.0494 -0.47351,-0.06314 -0.25175,-0.0218 -0.50499,-0.0057 -0.75761,0 -0.3793,0.0086 -0.75988,-0.0061 -1.13728,0.03282 -0.37739,0.03893 -0.75704,0.135101 -1.07243,0.345983 -0.11813,0.07899 -0.22629,0.173635 -0.31568,0.284105 -0.0808,0.09988 -0.14558,0.211636 -0.22097,0.315673 -0.0913,0.125918 -0.19766,0.239988 -0.29553,0.360832 -0.0979,0.120843 -0.18829,0.250524 -0.24111,0.396782 -0.0226,0.0626 -0.0381,0.127704 -0.0631,0.189404 -0.0462,0.114252 -0.12317,0.212903 -0.1969,0.311676 -0.0737,0.09877 -0.14639,0.201642 -0.18191,0.319669 -0.0306,0.101656 -0.0321,0.209514 -0.0316,0.315673 0.003,0.651716 0.0727,1.309121 0.28411,1.925603 0.0164,0.04784 0.0338,0.09564 0.0585,0.139752 0.0247,0.04411 0.0573,0.08471 0.0994,0.112786 0.0473,0.03158 0.1037,0.04572 0.15784,0.06313 0.16269,0.05232 0.31427,0.138931 0.44194,0.252538 m 0.30027,0.186651 c 0.25613,0.135407 0.46426,0.359551 0.58035,0.625 0.0915,0.209304 0.12659,0.44032 0.22322,0.647321 0.0636,0.136226 0.15324,0.260673 0.20026,0.403466 0.0235,0.0714 0.0359,0.147403 0.0272,0.222067 -0.009,0.07466 -0.0396,0.147977 -0.0936,0.20036 -0.0602,0.05854 -0.14301,0.08666 -0.22322,0.111607 -0.73533,0.228707 -1.50671,0.337666 -2.27678,0.334821 -0.32317,-0.0012 -0.65587,-0.02048 -0.95983,0.08929 -0.15664,0.05657 -0.29918,0.145394 -0.44642,0.223215 -0.0715,0.03781 -0.14611,0.07439 -0.2009,0.133928 -0.0505,0.05484 -0.0811,0.126059 -0.13393,0.178572 -0.05,0.04967 -0.11611,0.07892 -0.17857,0.111607 -0.0853,0.04466 -0.1672,0.09823 -0.2327,0.168826 -0.0655,0.0706 -0.11394,0.159555 -0.12444,0.255281 -0.005,0.04602 -0.001,0.09344 -0.0148,0.137778 -0.007,0.02217 -0.0177,0.04339 -0.0344,0.05946 -0.0167,0.01606 -0.0393,0.02658 -0.0624,0.02598 -0.007,-1.93e-4 -0.0149,-0.0015 -0.0224,-0.0021 -0.007,-6.12e-4 -0.0152,-4.79e-4 -0.0222,0.0021 -0.008,0.0029 -0.0144,0.0088 -0.0188,0.01588 -0.004,0.0071 -0.007,0.01531 -0.008,0.02361 -0.002,0.01661 0.002,0.03326 0.004,0.0498 0.0121,0.08187 -0.01,0.168241 -0.0594,0.234448 -0.0496,0.06621 -0.12644,0.11141 -0.20843,0.122695"
       id="path4803"
       inkscape:original-d="m 294.11223,58.955895 c 0.1091,0.0065 1.05672,-0.205973 1.16799,-0.0947 0.0894,0.08944 0.41563,-0.05787 0.50507,0.03157 0.14854,0.148542 1.46293,0.115435 1.5468,0.03157 0.21583,-0.21583 0.18508,-1.479341 0.2841,-1.578364 0.1,-0.09996 -0.0684,-0.468247 0.0316,-0.56821 0.0448,-0.04482 0,-0.371508 0,-0.441942 0,-0.263295 0.1217,-1.961737 0,-2.08344 -0.0169,-0.01689 0,-1.395554 0,-1.546796 0,-0.929008 -0.0316,-1.865131 -0.0316,-2.809487 0,-0.173388 -0.0663,-0.659711 0.0316,-0.757614 0.004,-0.0045 0.0556,-0.781636 0.12627,-0.852316 0.1006,-0.1006 0.178,-0.272698 0.28411,-0.378807 0.13153,-0.131531 0.34197,-0.184143 0.47351,-0.315673 0.021,-0.02105 0.10522,0.02105 0.12626,0 0.19645,-0.196445 1.56465,0.301956 1.6415,0.378807 0.0167,0.01672 0.49691,0.149666 0.50508,0.157836 0.13394,0.133942 0.6142,0.172264 0.69448,0.252539 0.21331,0.213308 0.61882,0.271585 0.82075,0.473509 0.0574,0.0574 0.4061,0.121997 0.47351,0.189403 0.31106,0.311068 0.88832,0.383246 1.23112,0.726047 0.0473,0.04735 0.17362,0.01578 0.22097,0.06313 0.10522,0.105224 0.27358,0.147314 0.37881,0.252538 0.17362,0.17362 0.42616,0.268322 0.59978,0.441942 0.0579,0.05787 0.19466,0.03683 0.25253,0.0947 0.0692,0.06918 0.20846,0.08218 0.25254,0.12627 0.0149,0.01488 -0.0149,0.04825 0,0.06313 0.0387,0.03869 0.17441,0.01657 0.22097,0.06314 0.23385,0.233845 1.06337,0.315672 1.5468,0.315672 0.19102,0 0.68203,0.04401 0.78918,-0.06313 0.0213,-0.02134 0.94444,-0.21839 1.04172,-0.315673 m 0.41035,-0.157842 c 0.0867,-1.124057 0.0631,-2.377172 0.0631,-3.567101 0,-0.416696 -0.0626,-0.916548 0.0947,-1.231124 0.0149,-0.02977 0.0149,-1.138217 0,-1.167989 -0.0405,-0.08109 -0.0631,-0.09342 -0.0631,-0.189403 m 0.31567,1.294258 c 0.25675,0.04513 1.57707,0.124972 1.67306,0.22097 0.0313,0.03131 0.61157,0.03157 0.72605,0.03157 0.2517,0 1.0023,-0.05528 1.10486,-0.157837 0.15107,-0.151074 0.28637,-0.223244 0.41037,-0.34724 0.27546,-0.275462 0.4206,-1.315599 0.0947,-1.641497 -0.0207,-0.02069 -0.0158,-0.110454 -0.0316,-0.126269 -0.17215,-0.172143 -0.47825,-0.288847 -0.66292,-0.473509 -0.0516,-0.05163 -0.19058,-0.03274 -0.25254,-0.0947 -0.32504,-0.325048 -0.57826,-0.546695 -0.91545,-0.883884 -0.11206,-0.112063 -0.27192,-0.177221 -0.3788,-0.284105 -0.0316,-0.03157 -0.0316,-0.0947 -0.0631,-0.126269 -0.10057,-0.10057 -0.27712,-0.18242 -0.37881,-0.284106 -0.0149,-0.01488 0.0149,-0.04825 0,-0.06313 -0.12559,-0.125599 -0.37561,-0.18621 -0.50507,-0.315673 -0.2046,-0.204597 -0.34652,-0.409653 -0.53665,-0.599778 -0.13295,-0.132956 -0.2801,-0.185404 -0.44194,-0.34724 -0.0894,-0.08944 -0.13153,-0.226232 -0.22097,-0.315673 -0.0149,-0.01488 -0.0482,0.01488 -0.0631,0 -0.0368,-0.03683 -0.0263,-0.121007 -0.0631,-0.157836 -0.0149,-0.01488 -0.0482,0.01488 -0.0631,0 -0.0303,-0.03035 -0.0226,-0.11732 -0.0631,-0.157836 -0.0579,-0.05787 -0.13153,-0.09996 -0.1894,-0.157837 -0.0421,-0.04209 -0.021,-0.147313 -0.0631,-0.189403 -0.0149,-0.01488 -0.0483,0.01488 -0.0631,0 -0.12258,-0.122584 -0.14877,-0.432875 -0.2841,-0.568211 -0.0525,-0.05246 0.0829,-0.177597 0.0947,-0.189404 0.12064,-0.120637 1.05607,0.04592 1.10485,0.0947 0.0576,0.05764 0.47764,0 0.56821,0 0.14816,0 1.49869,-0.01655 1.51523,0 0.0651,0.06509 1.32252,0.220971 1.51523,0.220971 m 0.50487,-6e-6 c 0.1299,-0.326225 0.12627,-0.680949 0.12627,-1.04172 0,-0.141654 0.0915,-0.353622 0.0316,-0.473509 -0.0367,-0.0734 -0.0155,-0.299609 -0.0631,-0.34724 -0.0934,-0.09343 -0.214,-0.687504 -0.25254,-0.726047 -0.0545,-0.05447 -0.0495,-0.175774 -0.0947,-0.220971 -0.21197,-0.211964 -0.25322,-0.600461 -0.47351,-0.820749 -0.0695,-0.06954 -0.0385,-0.196321 -0.0947,-0.252538 -0.23521,-0.235211 -0.37137,-0.529199 -0.56821,-0.726047 -0.0316,-0.03157 -0.0947,-0.03157 -0.12627,-0.06313 -0.0902,-0.09021 -0.11627,-0.210971 -0.22097,-0.315673 -0.12224,-0.122241 -0.32546,-0.199193 -0.44194,-0.315673 -0.0737,-0.07366 -0.11575,-0.178881 -0.18941,-0.252538 -0.0473,-0.04735 -0.14205,-0.04735 -0.1894,-0.0947 -0.0933,-0.09327 -0.72605,-0.648167 -0.72605,-0.726047 0,-0.08848 -0.25356,-0.316693 -0.31567,-0.378807 -0.0464,-0.04644 -0.61641,-1.277625 -0.50508,-1.38896 0.0684,-0.0684 0.12101,-0.152575 0.18941,-0.220971 0.0531,-0.05311 0.31101,-0.05848 0.3788,-0.126269 0.0752,-0.07519 0.7959,-0.0067 0.88389,-0.0947 0.12382,-0.123827 0.5624,-0.152033 0.66291,-0.252538 0.0728,-0.07278 0.20093,-0.106225 0.2841,-0.189403 0.0601,-0.06008 0.0996,-0.194277 0.15784,-0.252538 0.0211,-0.02105 0.0737,-0.01052 0.0947,-0.03157 0.0656,-0.06556 0.10312,-0.324088 0.15784,-0.378807 0.0526,-0.05261 0.0105,-0.199926 0.0631,-0.252538 0.0563,-0.05626 0.0316,-0.239284 0.0316,-0.34724 0,-0.703112 -0.26243,-1.430418 -0.63134,-1.799334 -0.0263,-0.02631 -0.005,-0.09996 -0.0316,-0.126269 -0.0149,-0.01488 -0.0483,0.01488 -0.0631,0 -0.069,-0.06904 -0.0293,-0.172468 -0.12627,-0.220971 m -0.15791,0.03156 c -0.33325,-0.152958 -0.46147,-0.398334 -0.63135,-0.568211 -0.0397,-0.03968 -0.15237,-0.05767 -0.1894,-0.0947 -0.072,-0.07198 -0.13875,-0.233451 -0.1894,-0.284106 -0.14139,-0.141384 -0.35412,-0.322544 -0.50508,-0.473509 -0.0263,-0.02631 -0.005,-0.09996 -0.0316,-0.126269 -0.26691,-0.266909 -0.47325,-0.599525 -0.72604,-0.852316 -0.0263,-0.02631 -0.005,-0.09996 -0.0316,-0.126269 -0.0149,-0.01488 -0.0483,0.01488 -0.0631,0 -0.13493,-0.134933 -0.1614,-0.350806 -0.2841,-0.473509 -0.0316,-0.03157 0,-0.126269 -0.0316,-0.157837 -0.30053,-0.300529 0.25667,-0.698609 0.41038,-0.852316 0.34975,-0.349756 1.28484,-0.243126 1.51522,-0.473509 0.0158,-0.01578 0.0789,0.01578 0.0947,0 0.121,-0.121008 0.22623,-0.257799 0.34724,-0.378807 0.0597,-0.05974 0.0757,-0.359772 0.12626,-0.410374 0.11398,-0.113971 0.0947,-0.474339 0.0947,-0.69448 0,-0.108491 0.12455,-0.569924 0.0316,-0.662913 -0.0803,-0.08032 -0.0803,-0.459153 -0.15783,-0.536644 -0.0631,-0.06313 -0.0631,-0.189403 -0.12627,-0.252538 -0.15771,-0.157706 -0.23858,-0.364851 -0.41038,-0.536643 -0.26327,-0.263276 -0.74196,-0.394725 -0.97858,-0.631346 -0.0927,-0.09271 -0.44591,-0.130238 -0.56821,-0.252538 -0.0659,-0.06586 -0.91276,-0.06313 -1.10486,-0.06313 -0.10567,0 -0.59566,-0.06725 -0.66291,0 -0.1662,0.1662 -2.01461,0.505076 -2.46225,0.505076 -0.0654,0 -0.36875,0.04162 -0.41037,0 -0.0975,-0.09749 -0.51519,-0.167952 -0.59978,-0.252538 -0.0149,-0.01488 0.0149,-0.04825 0,-0.06313 -0.0387,-0.03869 -0.17441,-0.01657 -0.22097,-0.06313 -0.2286,-0.228597 -0.58374,-0.362767 -0.82075,-0.599778 -0.0263,-0.02631 -0.1,-0.0053 -0.12627,-0.03157 -0.11048,-0.110486 -0.23675,-0.205188 -0.34724,-0.315673 -0.1,-0.09996 -0.15257,-0.247277 -0.25254,-0.34724 -0.0899,-0.08987 -0.1047,-0.294107 -0.1894,-0.378807 -0.11408,-0.114084 -0.27389,-0.263678 -0.34724,-0.410375 m -0.25251,-0.473519 c -0.22942,-0.304762 -0.57554,-0.386143 -0.78918,-0.599778 -0.0947,-0.0947 -0.15784,-0.220971 -0.25254,-0.315673 -0.0368,-0.03683 -0.121,-0.02631 -0.15783,-0.06313 -0.10714,-0.107139 -0.17175,-0.171746 -0.25254,-0.252538 -0.0263,-0.02631 -0.005,-0.09996 -0.0316,-0.126269 -0.25711,-0.25711 -0.42355,-0.581392 -0.69448,-0.852316 -0.0421,-0.04209 -0.14731,-0.02105 -0.1894,-0.06314 -0.20603,-0.206027 -0.50274,-0.155502 -0.69448,-0.34724 -0.0636,-0.0636 -1.37639,-0.113696 -1.38896,-0.126269 -0.0102,-0.01019 -0.95074,-0.05942 -0.97859,-0.03157 -0.0961,0.09615 -0.27919,0.06068 -0.41037,0.126269 -0.41599,0.207994 -1.12452,0.493177 -1.38896,0.757614 -0.0158,0.01578 -0.0789,-0.01578 -0.0947,0 -0.20026,0.200254 -0.49191,0.365634 -0.69448,0.568211 -0.13156,0.131553 -0.19497,0.32124 -0.31568,0.441942 -0.25458,0.254587 -0.49964,0.594343 -0.75761,0.852316 -0.14958,0.149583 -0.45329,0.295455 -0.63135,0.473509 -0.0579,0.05787 -0.19466,0.03683 -0.25253,0.0947 -0.0512,0.05121 -0.89359,0.135967 -1.04172,0.284105 -0.0263,0.02631 -0.13153,-0.02631 -0.15784,0 -0.19468,0.19468 -2.00611,0.140462 -2.17814,-0.03157 -0.0808,-0.08082 -0.39408,0.0163 -0.47351,-0.06314 -0.0769,-0.07686 -0.63684,0 -0.75761,0 -0.56566,0 -1.96729,0.136384 -2.20971,0.378808 -0.1,0.09996 -0.21571,0.184142 -0.31568,0.284105 -0.0894,0.08944 -0.13153,0.226232 -0.22097,0.315673 -0.21142,0.211425 -0.31345,0.534425 -0.53664,0.757614 -0.0421,0.04209 -0.021,0.147314 -0.0631,0.189404 -0.15235,0.15234 -0.22089,0.473426 -0.37881,0.631345 -0.0579,0.05787 0.0263,0.257799 -0.0316,0.315673 -0.51065,0.510652 -0.0138,1.627731 0.28411,1.925603 0.0678,0.06783 0.102,0.196709 0.15783,0.252538 0.0303,0.03035 0.11732,0.02262 0.15784,0.06313 0.11085,0.110848 0.21707,0.252538 0.44194,0.252538 m 0.30027,0.186651 c 0.24652,0.215744 0.44184,0.347979 0.58035,0.625 0.1019,0.203799 0.10929,0.419467 0.22322,0.647321 0.0366,0.07328 0.19741,0.762412 0.13393,0.825893 -0.0572,0.05718 -0.20781,0.0962 -0.22322,0.111607 -0.27689,0.276891 -1.65462,0.334821 -2.27678,0.334821 -0.2313,0 -0.86933,-0.0012 -0.95983,0.08929 -0.0918,0.09184 -0.39045,0.167245 -0.44642,0.223215 -0.0558,0.0558 -0.14509,0.07813 -0.2009,0.133928 -0.0534,0.05342 -0.10026,0.144901 -0.13393,0.178572 -0.0413,0.04133 -0.13341,0.06645 -0.17857,0.111607 -0.12377,0.123774 -0.22833,0.295295 -0.35714,0.424107 -0.0538,0.05378 -0.0489,0.160491 -0.11161,0.223214 -0.007,0.0074 -0.0372,-0.0074 -0.0446,0 -0.0186,0.0186 -0.004,0.07069 -0.0223,0.08929 -0.10417,0.104166 -0.16369,0.252976 -0.26786,0.357143"
       inkscape:connector-curvature="0"
       inkscape:path-effect="#path-effect4805" />
    <path
       style="fill:none;fill-rule:evenodd;stroke:#e7b140;stroke-width:2;stroke-linecap:round;stroke-linejoin:miter;stroke-miterlimit:4;stroke-dasharray:none;stroke-opacity:1"
       d="m 226.96429,1.6428569 c -0.32856,2.4388537 -0.4035,4.9117981 -0.22322,7.3660714 0.068,0.9262219 0.17231,1.8497817 0.3125,2.7678567"
       id="path4811"
       inkscape:path-effect="#path-effect4813"
       inkscape:original-d="m 226.96429,1.6428569 c -0.34339,2.2458635 -0.22322,4.8910883 -0.22322,7.3660714 0,0.8419744 0.0286,2.4839817 0.3125,2.7678567"
       inkscape:connector-curvature="0" />
    <path
       style="fill:none;fill-rule:evenodd;stroke:#e7b140;stroke-width:1.5;stroke-linecap:round;stroke-linejoin:miter;stroke-miterlimit:4;stroke-dasharray:none;stroke-opacity:1"
       d="m 237.67857,11.553571 6.33929,-6.830357"
       id="path4887"
       inkscape:path-effect="#path-effect4889"
       inkscape:original-d="m 237.67857,11.553571 c 2.87715,-1.7782816 4.23277,-4.7238364 6.33929,-6.830357"
       inkscape:connector-curvature="0" />
    <path
       style="fill:none;fill-rule:evenodd;stroke:#e7b140;stroke-width:2.79999995;stroke-linecap:round;stroke-linejoin:miter;stroke-miterlimit:4;stroke-dasharray:none;stroke-opacity:1"
       d="m 210.4274,12.23634 9.28078,4.103744"
       id="path4901"
       inkscape:path-effect="#path-effect4903"
       inkscape:original-d="m 210.4274,12.23634 c 2.49751,2.239796 5.74369,3.219472 9.28078,4.103744"
       inkscape:connector-curvature="0" />
    <path
       style="fill:none;fill-rule:evenodd;stroke:#e7b140;stroke-width:1.79999995;stroke-linecap:round;stroke-linejoin:miter;stroke-miterlimit:4;stroke-dasharray:none;stroke-opacity:1"
       d="m 207.71262,25.683995 c 0.62102,-0.853754 1.55887,-1.471367 2.58851,-1.704632 0.20933,-0.04742 0.42188,-0.07949 0.63135,-0.126269 0.29914,-0.0668 0.59066,-0.163274 0.88388,-0.252538 2.50392,-0.76227 5.16611,-1.000352 7.76555,-0.69448"
       id="path4945"
       inkscape:path-effect="#path-effect4947"
       inkscape:original-d="m 207.71262,25.683995 c 0.35753,-0.931451 1.78444,-1.302594 2.58851,-1.704632 0.15617,-0.07808 0.53088,-0.0258 0.63135,-0.126269 0.18294,-0.182945 0.7633,-0.131957 0.88388,-0.252538 0.7917,-0.791695 6.0154,-0.69448 7.76555,-0.69448"
       inkscape:connector-curvature="0" />
    <path
       style="fill:none;fill-rule:evenodd;stroke:#e7b140;stroke-width:2.29999995;stroke-linecap:round;stroke-linejoin:miter;stroke-miterlimit:4;stroke-dasharray:none;stroke-opacity:1"
       d="m 215.7307,33.386409 c 1.11739,-0.919935 2.21216,-1.867334 3.283,-2.841054 0.91442,-0.831488 1.81127,-1.68205 2.71478,-2.525382 0.29392,-0.274345 0.58855,-0.547929 0.88389,-0.820749"
       id="path4973"
       inkscape:original-d="m 215.7307,33.386409 c 0.5863,-1.499441 2.31418,-1.872238 3.283,-2.841054 0.92133,-0.921331 1.79808,-1.608679 2.71478,-2.525382 0.26081,-0.260804 0.7152,-0.483365 0.88389,-0.820749"
       inkscape:connector-curvature="0"
       inkscape:path-effect="#path-effect4975" />
    <path
       style="fill:none;fill-rule:evenodd;stroke:#000000;stroke-width:1px;stroke-linecap:butt;stroke-linejoin:miter;stroke-opacity:1"
       d="m 233.2821,28.019973 c -0.42101,1.100249 -0.90613,2.175961 -1.45209,3.219861 -0.17073,0.326441 -0.34896,0.653689 -0.44194,1.010153 -0.0647,0.247875 -0.0866,0.504535 -0.12627,0.757614 -0.0786,0.501485 -0.22784,0.991847 -0.44194,1.452095"
       id="path5013"
       inkscape:original-d="m 233.2821,28.019973 c -0.52979,0.814346 -0.96602,2.733796 -1.45209,3.219861 -0.13104,0.131036 -0.22154,0.789746 -0.44194,1.010153 -0.14732,0.147314 0.021,0.610301 -0.12627,0.757614 -0.12349,0.123493 -0.44194,1.236663 -0.44194,1.452095"
       inkscape:connector-curvature="0"
       inkscape:path-effect="#path-effect5015" />
    <path
       style="fill:none;fill-rule:evenodd;stroke:#e7b140;stroke-width:1.5;stroke-linecap:round;stroke-linejoin:miter;stroke-miterlimit:4;stroke-dasharray:none;stroke-opacity:1"
       d="m 230.88299,34.333427 c -0.40399,-0.811272 -0.56882,-1.739848 -0.46873,-2.640598 0.10008,-0.900749 0.46472,-1.770494 1.03694,-2.4733 0.32138,-0.39473 0.70673,-0.737263 1.13642,-1.010152 m 0.63135,0.06313 c 0.0417,1.406443 -0.24133,2.821523 -0.82075,4.103745 -0.15213,0.336665 -0.32658,0.667551 -0.56821,0.947018 -0.14679,0.169774 -0.31732,0.318989 -0.50508,0.441942 m 0.18941,-0.820745 c 0.20819,-0.909065 0.29339,-1.846215 0.25254,-2.77792 -0.004,-0.08418 -0.008,-0.168699 0,-0.252538 0.0158,-0.157676 0.079,-0.310293 0.17936,-0.432937 0.10035,-0.122645 0.23742,-0.214843 0.38885,-0.261543 m 0,-0.252538 -1.38896,3.535534"
       id="path5025"
       inkscape:original-d="m 230.88299,34.333427 c -0.58641,-2.009825 -0.79862,-3.74707 0.56821,-5.113898 0.53451,-0.534509 0.38652,-0.635199 1.13642,-1.010152 m 0.63135,0.06313 c 0.79813,1.570446 -0.0321,3.315118 -0.82075,4.103745 -0.22412,0.224123 -0.30341,0.682214 -0.56821,0.947018 -0.12869,0.128691 -0.41193,0.255648 -0.50508,0.441942 m 0.18941,-0.820745 c 0.0789,-0.839787 -0.23267,-2.292717 0.25254,-2.77792 0.0421,-0.04209 -0.0421,-0.210448 0,-0.252538 0.19799,-0.197994 0.43898,-0.436022 0.56821,-0.69448 m 0,-0.252538 c -0.75387,0.823797 -1.38896,2.284357 -1.38896,3.535534"
       inkscape:connector-curvature="0"
       inkscape:path-effect="#path-effect5027" />
    <path
       style="fill:none;fill-rule:evenodd;stroke:#e7b140;stroke-width:2.20000005;stroke-linecap:round;stroke-linejoin:miter;stroke-miterlimit:4;stroke-dasharray:none;stroke-opacity:1"
       d="m 231.69643,24.232143 c -0.35881,0.351694 -0.81074,0.607165 -1.29665,0.734947 -0.4859,0.127782 -1.00324,0.127124 -1.49214,0.0113 -0.4889,-0.115825 -0.94667,-0.345063 -1.35536,-0.637312 -0.40868,-0.292249 -0.76844,-0.646522 -1.12371,-1.001792 l -1.07143,-1.071429 c -0.15621,-0.156209 -0.3111,-0.315854 -0.43309,-0.500031 -0.12199,-0.184177 -0.21006,-0.391282 -0.25252,-0.608075 -0.0425,-0.216793 -0.0399,-0.440923 -0.007,-0.659438 0.0325,-0.218515 0.0936,-0.431647 0.1573,-0.64317 0.31279,-1.038304 0.69316,-2.075541 1.33928,-2.946429 0.85233,-1.148828 2.13709,-1.943682 3.51901,-2.313232 1.38192,-0.36955 2.85501,-0.32987 4.24885,-0.0082 1.15831,0.267318 2.29346,0.728234 3.48214,0.714285 0.0893,-0.001 0.17868,-0.0048 0.26786,0 0.33908,0.01825 0.66593,0.162511 0.92551,0.381435 0.25959,0.218925 0.45379,0.509606 0.58187,0.824098 0.25616,0.628984 0.24988,1.332336 0.18905,2.008753 -0.0215,0.239045 -0.0493,0.477628 -0.0893,0.714286 -0.0409,0.242328 -0.0948,0.483246 -0.17857,0.714285 -0.17953,0.495091 -0.49383,0.934491 -0.87071,1.302323 -0.37689,0.367831 -0.81571,0.667111 -1.27214,0.92982 -0.60042,0.345583 -1.23385,0.63046 -1.875,0.892857 -1.10688,0.453 -2.24045,0.840798 -3.39286,1.160715 l 1e-5,0 z"
       id="path5033"
       inkscape:original-d="m 231.69643,24.232143 c -1.29681,0.02826 -4.76602,-0.391023 -5.26786,-0.892857 -0.36222,-0.362226 -0.66698,-0.666985 -1.07143,-1.071429 -0.36884,-0.368841 -0.53571,-1.624069 -0.53571,-2.410714 0,-1.697884 0.49705,-2.104196 1.33928,-2.946429 2.06358,-2.063574 3.96711,-2.321428 7.76786,-2.321428 1.30164,0 2.81892,0.05107 3.48214,0.714285 0.0447,0.04464 0.22322,-0.04464 0.26786,0 0.80945,0.809445 1.69643,1.601401 1.69643,3.214286 0,0.262637 0.0427,0.582317 -0.0893,0.714286 -0.1488,0.148809 -0.0298,0.565476 -0.17857,0.714285 -0.72916,0.729167 -1.41369,1.502977 -2.14285,2.232143 -0.33288,0.332879 -1.69714,0.714996 -1.875,0.892857 -0.51025,0.510244 -2.56419,1.367883 -3.39286,1.160715 z"
       inkscape:connector-curvature="0"
       inkscape:path-effect="#path-effect5035" />
    <path
       style="fill:none;fill-rule:evenodd;stroke:#e7b140;stroke-width:2.4000001;stroke-linecap:round;stroke-linejoin:miter;stroke-miterlimit:4;stroke-dasharray:none;stroke-opacity:1"
       d="m 242.58929,17.357143 c 1.79047,-0.54096 3.60926,-0.988203 5.44642,-1.339286 0.35569,-0.06797 0.71226,-0.132374 1.07143,-0.178571 0.68157,-0.08766 1.36987,-0.109462 2.05357,-0.178572 0.81401,-0.08228 1.62122,-0.231765 2.41072,-0.446428"
       id="path5045"
       inkscape:original-d="m 242.58929,17.357143 c 1.02821,-0.172419 4.95725,-0.85011 5.44642,-1.339286 0.20834,-0.208333 0.8631,0.02976 1.07143,-0.178571 0.37203,-0.372024 1.68155,0.193452 2.05357,-0.178572 0.11766,-0.11765 2.13437,-0.446428 2.41072,-0.446428"
       inkscape:connector-curvature="0"
       inkscape:path-effect="#path-effect5047" />
    <path
       style="fill:none;fill-rule:evenodd;stroke:#e7b140;stroke-width:2;stroke-linecap:round;stroke-linejoin:miter;stroke-miterlimit:4;stroke-dasharray:none;stroke-opacity:1"
       d="m 240.38474,25.021083 c 1.17331,0.765657 2.35186,1.523294 3.53553,2.272843 0.35865,0.227112 0.71908,0.454196 1.10486,0.631345 0.10701,0.04914 0.21632,0.09463 0.31567,0.157837 0.11136,0.07085 0.20773,0.162379 0.30686,0.24951 0.0991,0.08713 0.20342,0.17144 0.32449,0.223999 0.052,0.02257 0.10653,0.03903 0.15783,0.06313 0.11206,0.05265 0.20406,0.139423 0.29113,0.227443 0.0871,0.08802 0.17253,0.179742 0.27708,0.246066 0.10751,0.0682 0.23066,0.106666 0.34724,0.157837 0.22927,0.100633 0.43575,0.252777 0.59978,0.441941"
       id="path5053"
       inkscape:original-d="m 240.38474,25.021083 c 1.0992,0.87472 2.31652,1.663336 3.53553,2.272843 0.37525,0.187625 0.79548,0.32197 1.10486,0.631345 0.0567,0.05665 0.25737,0.09954 0.31567,0.157837 0.0708,0.07079 0.5281,0.421888 0.63135,0.473509 0.0513,0.02565 0.11976,0.02507 0.15783,0.06313 0.17114,0.171135 0.42362,0.328913 0.56821,0.473509 0.0858,0.08585 0.26309,0.07368 0.34724,0.157837 0.16861,0.168604 0.3772,0.330653 0.59978,0.441941"
       inkscape:connector-curvature="0"
       inkscape:path-effect="#path-effect5055" />
    <path
       style="fill:none;fill-rule:evenodd;stroke:#953577;stroke-width:1.89999998;stroke-linecap:round;stroke-linejoin:miter;stroke-miterlimit:4;stroke-dasharray:none;stroke-opacity:1"
       d="m 275.26657,35.21731 c -0.42955,0.667882 -0.93946,1.284027 -1.51523,1.830902 -0.70417,0.668832 -1.52022,1.250906 -2.0203,2.083439 -0.16003,0.266416 -0.28393,0.553136 -0.44195,0.820749 -0.43739,0.740742 -1.12467,1.316973 -1.51523,2.08344 -0.11547,0.226602 -0.20306,0.466444 -0.31567,0.69448 -0.37535,0.760114 -1.01181,1.358994 -1.45209,2.083439 -0.41771,0.687319 -0.64997,1.475784 -0.75762,2.272844 -0.0847,0.626903 -0.0947,1.26223 -0.0631,1.894036 0.0781,1.562917 0.40912,3.107432 0.44194,4.671955 0.006,0.294574 0.002,0.589251 0,0.883884 -0.009,1.53811 0.054,3.076652 0.1894,4.608821"
       id="path5085"
       inkscape:original-d="m 275.26657,35.21731 c -0.5817,0.726652 -0.95987,1.275537 -1.51523,1.830902 -0.66939,0.669393 -1.31613,1.379269 -2.0203,2.083439 -0.21045,0.210449 -0.2315,0.610301 -0.44195,0.820749 -0.56002,0.560026 -0.89909,1.467303 -1.51523,2.08344 -0.16835,0.168359 -0.14731,0.526121 -0.31567,0.69448 -0.60593,0.60593 -0.86045,1.491793 -1.45209,2.083439 -0.41338,0.41338 -0.54671,2.061938 -0.75762,2.272844 -0.0692,0.06924 -0.0631,1.619514 -0.0631,1.894036 0,0.663865 0.26538,4.495395 0.44194,4.671955 0.0897,0.08964 0,0.743016 0,0.883884 0,1.597273 0.1894,2.974579 0.1894,4.608821"
       inkscape:connector-curvature="0"
       inkscape:path-effect="#path-effect5087" />
    <path
       style="fill:none;fill-rule:evenodd;stroke:#953577;stroke-width:1.29999995;stroke-linecap:round;stroke-linejoin:miter;stroke-miterlimit:4;stroke-dasharray:none;stroke-opacity:1"
       d="m 261.33929,40.526786 c 0.19133,-0.224454 0.40055,-0.433666 0.625,-0.625 0.32691,-0.278671 0.68494,-0.518558 1.01892,-0.788705 0.33399,-0.270147 0.64826,-0.576417 0.85608,-0.952367 0.0483,-0.08738 0.0905,-0.177946 0.13393,-0.267857 0.56752,-1.175633 1.35356,-2.282811 1.5625,-3.571429 0.0455,-0.280813 0.0621,-0.570607 0,-0.848214 -0.0381,-0.170303 -0.10515,-0.332753 -0.17858,-0.491071 -0.056,-0.120759 -0.11593,-0.239685 -0.17857,-0.357143 -0.0707,-0.132537 -0.14525,-0.263853 -0.23871,-0.381443 -0.0935,-0.117589 -0.20698,-0.221648 -0.34164,-0.2882 -0.17667,-0.08731 -0.38042,-0.105699 -0.57698,-0.09166 -0.19657,0.01404 -0.38945,0.05873 -0.58374,0.09166 -0.31408,0.05324 -0.63573,0.0765 -0.9375,0.178571 -0.37923,0.128271 -0.70949,0.376502 -0.98214,0.669643 -0.41367,0.444757 -0.70648,1.00087 -0.83907,1.593623 -0.13259,0.592752 -0.10462,1.220616 0.0801,1.799234"
       id="path5113"
       inkscape:original-d="m 261.33929,40.526786 c 0.28411,-0.242729 0.41962,-0.41962 0.625,-0.625 0.63693,-0.636935 1.2309,-1.096978 1.875,-1.741072 0.067,-0.06696 0.067,-0.200893 0.13393,-0.267857 0.61167,-0.611678 1.5625,-2.315147 1.5625,-3.571429 0,-0.13521 0.086,-0.76217 0,-0.848214 -0.11161,-0.111607 -0.067,-0.379464 -0.17858,-0.491071 -0.0893,-0.08929 -0.0893,-0.267857 -0.17857,-0.357143 -0.20525,-0.205249 -0.35666,-0.445952 -0.58035,-0.669643 -0.0525,-0.05254 -1.09243,-0.06829 -1.16072,0 -0.0607,0.0607 -0.845,0.08608 -0.9375,0.178571 -0.27164,0.271644 -0.7196,0.407098 -0.98214,0.669643 -0.73174,0.731743 -1.39855,2.113628 -0.75893,3.392857"
       inkscape:connector-curvature="0"
       inkscape:path-effect="#path-effect5115" />
    <path
       style="fill:none;fill-rule:evenodd;stroke:#953577;stroke-width:1.20000005;stroke-linecap:round;stroke-linejoin:miter;stroke-miterlimit:4;stroke-dasharray:none;stroke-opacity:1"
       d="m 255.69486,38.942248 c -0.42423,-0.351918 -0.82523,-0.731822 -1.19955,-1.136422 -0.8947,-0.967087 -1.65166,-2.114275 -1.89404,-3.409265 -0.0586,-0.313071 -0.0858,-0.640292 0,-0.947018 0.083,-0.296678 0.26968,-0.558875 0.50508,-0.757614 0.2459,-0.207601 0.54024,-0.347347 0.82075,-0.505076 0.29645,-0.166692 0.58204,-0.356273 0.89758,-0.483152 0.31555,-0.12688 0.67213,-0.187438 0.99645,-0.08506 0.29124,0.09194 0.53223,0.309466 0.69448,0.568211 0.23521,0.375089 0.31392,0.824735 0.37881,1.26269 0.059,0.397917 0.11053,0.797602 0.12627,1.199556 0.0598,1.525588 -0.41625,3.066914 -1.32583,4.293149 z"
       id="path5121"
       inkscape:original-d="m 255.69486,38.942248 c -0.66643,-0.300707 -0.70636,-0.643229 -1.19955,-1.136422 -0.94255,-0.942551 -1.89404,-1.503853 -1.89404,-3.409265 0,-0.15094 -0.096,-0.850963 0,-0.947018 0.21045,-0.210448 0.29463,-0.547166 0.50508,-0.757614 0.24276,-0.242762 0.5852,-0.269533 0.82075,-0.505076 0.0594,-0.05942 1.65301,-0.809236 1.89403,-0.568211 0.2294,0.229397 0.49016,0.363888 0.69448,0.568211 0.15904,0.159035 0.30849,1.19237 0.37881,1.26269 0.19716,0.197157 0.12627,0.821117 0.12627,1.199556 0,1.991521 -0.36855,3.016778 -1.32583,4.293149 z"
       inkscape:connector-curvature="0"
       inkscape:path-effect="#path-effect5123" />
    <path
       style="fill:none;fill-rule:evenodd;stroke:#953577;stroke-width:3.70000005;stroke-linecap:round;stroke-linejoin:miter;stroke-miterlimit:4;stroke-dasharray:none;stroke-opacity:1"
       d="m 231.78571,37.357143 c 1.11423,-0.832165 2.31282,-1.551317 3.57143,-2.142857 0.32547,-0.152967 0.65486,-0.297398 0.98215,-0.446429 1.04964,-0.477956 2.08256,-1.00627 3.01576,-1.684004 0.93321,-0.677735 1.7676,-1.511942 2.34138,-2.512425 0.11939,-0.208184 0.22735,-0.423136 0.35714,-0.625 0.41822,-0.650445 1.04181,-1.13543 1.60677,-1.66345 0.28248,-0.26401 0.55375,-0.542794 0.77714,-0.858379 0.22339,-0.315586 0.39842,-0.670258 0.47323,-1.049599 0.0238,-0.120727 0.038,-0.245302 0.0893,-0.357143 0.0755,-0.16459 0.22239,-0.283181 0.36284,-0.397494 0.14045,-0.114314 0.28476,-0.237715 0.35145,-0.406077 0.0452,-0.114225 0.0509,-0.240448 0.0893,-0.357143 0.0368,-0.111734 0.10295,-0.212046 0.18067,-0.30035 0.0777,-0.0883 0.16711,-0.165474 0.25677,-0.241622 0.0897,-0.07615 0.18017,-0.151821 0.26062,-0.237643 0.0805,-0.08582 0.15107,-0.182609 0.1948,-0.291814 0.0457,-0.114064 0.0607,-0.237658 0.0893,-0.357143 0.0673,-0.280559 0.21019,-0.538597 0.38422,-0.768702 0.17404,-0.230104 0.379,-0.434987 0.58942,-0.632374 0.42083,-0.394773 0.8505,-0.780198 1.25851,-1.188209 l 1.875,-1.875 c 0.18195,-0.181952 0.37181,-0.35737 0.5845,-0.502205 0.21268,-0.144835 0.4429,-0.261577 0.6655,-0.390653 0.69776,-0.404593 1.31011,-0.955706 1.78571,-1.607142 m 0.0892,0.357142 c 1.14031,-0.400433 2.39687,-0.463261 3.57143,-0.178571 0.18327,0.04442 0.36549,0.09743 0.53571,0.178571 0.47084,0.224439 0.81384,0.643705 1.14682,1.045184 0.33299,0.401479 0.69126,0.812328 1.17461,1.008388 0.17448,0.07077 0.35997,0.110979 0.53571,0.178571 0.30853,0.118667 0.57958,0.319008 0.82284,0.542829 0.24327,0.223821 0.46215,0.47256 0.69502,0.707171 0.45814,0.461555 0.98657,0.876972 1.60714,1.071429 0.20682,0.06481 0.42139,0.104266 0.625,0.178571 0.42976,0.156839 0.78757,0.45927 1.14359,0.746581 0.35601,0.287311 0.73376,0.572044 1.17784,0.681991 0.14734,0.03648 0.29909,0.05281 0.44643,0.08929 0.40368,0.09993 0.7542,0.344948 1.0871,0.594195 0.3329,0.249248 0.66569,0.511621 1.05576,0.655805 0.31852,0.117737 0.66304,0.151708 0.98214,0.267858 0.40995,0.149217 0.75844,0.426167 1.10434,0.692017 0.3459,0.26585 0.70752,0.530281 1.1278,0.647268 0.14626,0.04071 0.29695,0.06269 0.44643,0.08929 1.88722,0.33578 3.55597,1.397768 5.35715,2.053571 0.73414,0.267298 1.49097,0.467128 2.23214,0.714286 0.81296,0.271099 1.6058,0.598703 2.41071,0.892857 0.3272,0.119574 0.65642,0.233633 0.98215,0.357143 1.58264,0.600105 3.07346,1.419619 4.64285,2.053572 0.32309,0.130511 0.64957,0.253169 0.98215,0.357142 0.84767,0.265005 1.72839,0.406753 2.58928,0.625 0.84017,0.212994 1.66051,0.498617 2.5,0.714286 0.74914,0.192458 1.51699,0.330351 2.23214,0.625 0.33254,0.137009 0.65071,0.306798 0.98215,0.446429 0.61675,0.259825 1.27682,0.414168 1.875,0.714285 0.74457,0.373563 1.37448,0.971981 1.78571,1.696429 m -70.26782,0.08928 c -0.11919,0.04426 -0.23824,0.0889 -0.35714,0.133928 -1.20704,0.457047 -2.39936,0.953306 -3.61607,1.383929 -0.23214,0.08216 -0.46856,0.162629 -0.71429,0.178571 -0.0891,0.0058 -0.17858,0.003 -0.26785,0 -0.24348,-0.0081 -0.48988,-0.01743 -0.72817,0.03325 -0.11915,0.02534 -0.23564,0.06582 -0.34124,0.126539 -0.10559,0.06072 -0.20016,0.142118 -0.26988,0.241999 -0.0763,0.10934 -0.12169,0.240048 -0.12952,0.373164 -0.008,0.133116 0.0219,0.268238 0.0849,0.385765"
       id="path5141"
       inkscape:original-d="m 231.78571,37.357143 c 1.06706,-0.968346 2.68134,-1.252764 3.57143,-2.142857 0.2381,-0.238096 0.74405,-0.208334 0.98215,-0.446429 1.56489,-1.564897 3.84439,-2.683682 5.35714,-4.196429 0.16369,-0.16369 0.19345,-0.461309 0.35714,-0.625 1.09542,-1.095422 1.73051,-2.444793 2.85714,-3.571428 0.0585,-0.05853 0.0446,-0.312411 0.0893,-0.357143 0.24787,-0.247871 0.42895,-0.518232 0.71429,-0.803571 0.0744,-0.07441 0.0149,-0.282739 0.0893,-0.357143 0.30386,-0.303853 0.56573,-0.7443 0.89286,-1.071429 0.0744,-0.0744 0.0149,-0.282738 0.0893,-0.357143 0.79944,-0.799433 1.43632,-1.793455 2.23215,-2.589285 0.59699,-0.59699 1.27487,-1.274876 1.875,-1.875 0.34362,-0.343618 0.83586,-0.478724 1.25,-0.892858 0.39783,-0.39783 1.52708,-1.477826 1.78571,-1.607142 m 0.0892,0.357142 c 0.91683,-0.755311 2.66124,-1.088755 3.57143,-0.178571 0.11904,0.119048 0.41666,0.05952 0.53571,0.178571 0.70123,0.70123 1.60174,1.333887 2.32143,2.053572 0.11905,0.119047 0.41667,0.05952 0.53571,0.178571 0.43476,0.434756 1.06438,0.796518 1.51786,1.25 0.44897,0.448974 1.16487,0.629154 1.60714,1.071429 0.13393,0.133928 0.49107,0.04464 0.625,0.178571 0.633,0.632999 1.72199,0.829134 2.32143,1.428572 0.0769,0.07692 0.34926,0.0407 0.44643,0.08929 0.57872,0.289362 1.74692,0.854058 2.14286,1.25 0.18155,0.181548 0.80059,0.08631 0.98214,0.267858 0.59524,0.595238 1.63691,0.744047 2.23214,1.339285 0.0893,0.08929 0.35715,0 0.44643,0.08929 0.81555,0.815549 4.50143,1.197859 5.35715,2.053571 0.25926,0.259261 1.95568,0.437832 2.23214,0.714286 0.40766,0.407665 2.13022,0.612361 2.41071,0.892857 0.19919,0.199192 0.7874,0.162395 0.98215,0.357143 0.46278,0.462788 3.70641,1.585349 4.64285,2.053572 0.35976,0.179881 0.72397,0.09897 0.98215,0.357142 0.22454,0.224544 2.45717,0.492894 2.58928,0.625 0.28664,0.286641 2.44206,0.656349 2.5,0.714286 0.3268,0.326799 1.99954,0.392399 2.23214,0.625 0.2316,0.231596 0.71384,0.178123 0.98215,0.446429 0.40656,0.406565 1.6429,0.482192 1.875,0.714285 0.61744,0.61744 1.36584,0.856695 1.78571,1.696429 m -70.26782,0.08928 c -0.056,0.09151 -0.28857,0.06535 -0.35714,0.133928 -0.63152,0.631517 -2.70931,0.930547 -3.61607,1.383929 -0.24361,0.121806 -0.48253,0.06269 -0.71429,0.178571 -0.0564,0.02818 -0.225,-0.04286 -0.26785,0 -0.14465,0.144643 -1.09637,0.158864 -1.33929,0.401786 -0.10612,0.106121 -0.0446,0.565221 -0.0446,0.758929"
       inkscape:connector-curvature="0"
       inkscape:path-effect="#path-effect5143" />
    <path
       style="fill:none;fill-rule:evenodd;stroke:#953577;stroke-width:1px;stroke-linecap:round;stroke-linejoin:miter;stroke-opacity:1"
       d="m 266.96429,15.258928 c 0.0482,0.489812 0.0407,0.985087 -0.0223,1.473215 -0.0221,0.171177 -0.051,0.341538 -0.067,0.513393 -0.0242,0.259485 -0.0187,0.520668 -0.0223,0.78125 -0.004,0.267938 -0.017,0.535661 -0.0223,0.803571 -0.0135,0.678603 0.0238,1.358215 0.1116,2.03125 m 0.0893,-5.513393 c 0.008,-0.02955 0.0157,-0.05933 0.0223,-0.08929 0.008,-0.03705 0.0151,-0.07436 0.0223,-0.111607 0.0161,-0.08346 0.0338,-0.16728 0.067,-0.245535 0.0275,-0.06488 0.0655,-0.125257 0.1116,-0.178572 0.0559,-0.06462 0.12399,-0.119063 0.2009,-0.15625 0.10433,-0.05044 0.22093,-0.06791 0.33482,-0.08929 0.0959,-0.01801 0.19408,-0.03928 0.29018,-0.02232 0.0727,0.01283 0.14024,0.04714 0.20089,0.08929 0.11412,0.07932 0.2059,0.18588 0.30457,0.283745 0.0987,0.09787 0.20949,0.190228 0.34275,0.229648 0.0294,0.0087 0.0596,0.0147 0.0893,0.02232 0.24337,0.06238 0.45458,0.2398 0.55803,0.46875 M 269.375,15.28125 c 0.27217,0.543213 0.67318,1.02134 1.16071,1.383928 0.0913,0.06792 0.18625,0.132197 0.29018,0.178572 0.18326,0.08177 0.38644,0.104633 0.58036,0.15625 0.14012,0.0373 0.27912,0.09032 0.42411,0.08929 0.18321,-0.0013 0.36336,-0.09567 0.46875,-0.245536 M 271.89732,17 c 0.0401,-0.06606 0.10235,-0.118367 0.17436,-0.146368 0.072,-0.028 0.15327,-0.03153 0.22743,-0.0099 0.0385,0.01124 0.0747,0.0289 0.1116,0.04464 0.35475,0.151411 0.75687,0.121943 1.1384,0.178571 0.11982,0.01778 0.23816,0.04423 0.35714,0.06696 0.24314,0.04646 0.48935,0.07748 0.73661,0.08929 0.1041,0.005 0.20848,0.0065 0.3125,0 0.17868,-0.01122 0.35545,-0.04627 0.53438,-0.05227 0.17893,-0.006 0.36578,0.0199 0.51472,0.119226 0.0825,0.05502 0.15042,0.131069 0.1987,0.217701 0.0483,0.08663 0.0771,0.183654 0.0873,0.282307 0.0203,0.197306 -0.0341,0.397658 -0.12972,0.571424 -0.0439,0.07972 -0.0964,0.154698 -0.15625,0.223214 m 0.067,0.133929 c -0.15685,0.125776 -0.27503,0.299116 -0.33482,0.491071 -0.0141,0.04522 -0.0258,0.09154 -0.0473,0.133779 -0.0214,0.04224 -0.0532,0.07826 -0.0866,0.111757 l -0.64732,0.647321 c -0.0215,0.02149 -0.0418,0.04459 -0.0559,0.0715 -0.0141,0.02692 -0.0225,0.05639 -0.0334,0.08475 -0.0282,0.07318 -0.0774,0.138148 -0.14011,0.185206 -0.0627,0.04706 -0.13888,0.07605 -0.21703,0.08265 m 1.80801,-2.299108 c -0.0263,-0.0046 -0.0541,-5.34e-4 -0.078,0.01142 -0.0239,0.01195 -0.0438,0.03172 -0.0559,0.05554 -0.0128,0.02522 -0.0168,0.05402 -0.0177,0.0823 -9.3e-4,0.02828 0.001,0.05663 -9.1e-4,0.08486 -0.002,0.02823 -0.008,0.05691 -0.0233,0.08066 -0.008,0.01187 -0.0177,0.02236 -0.0296,0.02994 -0.012,0.0076 -0.0259,0.01219 -0.04,0.01242 -0.0113,1.88e-4 -0.0225,-0.0024 -0.0337,-0.0037 -0.0112,-0.0013 -0.0231,-0.0013 -0.0333,0.0037 -0.009,0.0046 -0.0165,0.0132 -0.0203,0.02293 -0.004,0.0097 -0.005,0.02051 -0.003,0.03086 0.003,0.0207 0.0138,0.03926 0.0234,0.05782 0.0774,0.149106 0.0798,0.334799 0.006,0.485897 -0.0734,0.151097 -0.22086,0.263971 -0.38588,0.295353 m -0.93747,1.205363 c -0.0721,-0.02147 -0.14829,-0.02909 -0.22321,-0.02232 -0.13301,0.01202 -0.26137,0.07045 -0.35779,0.162852 -0.0964,0.0924 -0.16026,0.218165 -0.17793,0.350541 m -0.11161,-0.08929 c -0.24583,0.143801 -0.41674,0.408719 -0.44642,0.691965 -0.005,0.05243 -0.007,0.105938 -0.0223,0.15625 -0.0131,0.0418 -0.0363,0.08041 -0.067,0.111607 -0.16661,0.518935 -0.25716,1.062224 -0.26785,1.607145 -0.002,0.08237 -0.002,0.165802 -0.0223,0.245535 -0.0169,0.06488 -0.0475,0.126142 -0.0893,0.178572"
       id="path4225"
       inkscape:original-d="m 266.96429,15.258928 c -0.0388,0.246941 0.0494,1.32983 -0.0223,1.473215 -0.0632,0.126338 -0.067,0.387432 -0.067,0.513393 0,0.157562 0.0351,0.666518 -0.0223,0.78125 -0.0181,0.03613 -0.0318,0.794092 -0.0223,0.803571 0.0801,0.08013 0.1116,1.844026 0.1116,2.03125 m 0.0893,-5.513393 c -0.10978,-0.146383 -0.0842,-0.06266 0.0223,-0.08929 0.0368,-0.0092 0.005,-0.07767 0.0223,-0.111607 0.0258,-0.05166 0.0204,-0.198996 0.067,-0.245535 0.048,-0.04799 0.0538,-0.120755 0.1116,-0.178572 0.0501,-0.05008 0.14882,-0.104176 0.2009,-0.15625 0.0707,-0.07068 0.26413,-0.0186 0.33482,-0.08929 0.013,-0.01301 0.25298,-0.05952 0.29018,-0.02232 0.0484,0.04836 0.15253,0.04092 0.20089,0.08929 0.20532,0.205324 0.44735,0.313418 0.64732,0.513393 0.0186,0.0186 0.0707,0.0037 0.0893,0.02232 0.17838,0.178379 0.44538,0.243451 0.55803,0.46875 M 269.375,15.28125 c 0.41192,0.574157 0.76038,0.983598 1.16071,1.383928 0.0705,0.0705 0.20694,0.09533 0.29018,0.178572 0.0655,0.06555 0.56553,0.141415 0.58036,0.15625 0.0428,0.04283 0.31792,0.142381 0.42411,0.08929 0.16759,-0.0838 0.32109,-0.171707 0.46875,-0.245536 M 271.89732,17 c 0.15015,0.04529 0.30488,-0.142401 0.40179,-0.156246 0.0397,-0.0057 0.0758,0.06256 0.1116,0.04464 0.32824,-0.16412 0.94339,0.08107 1.1384,0.178571 0.10364,0.05182 0.25279,0.01479 0.35714,0.06696 0.19007,0.09504 0.60398,-0.04335 0.73661,0.08929 0.013,0.01302 0.29948,0.01302 0.3125,0 0.211,-0.211004 0.88248,-0.01635 1.0491,0.06696 0.17929,0.07899 0.29367,0.93402 0.15625,1.071432 -0.0427,0.04275 -0.15625,0.151374 -0.15625,0.223214 m 0.067,0.133929 c -0.0724,0.19826 -0.20446,0.360714 -0.33482,0.491071 -0.0566,0.05662 -0.0634,0.175034 -0.13393,0.245536 -0.20414,0.204137 -0.43081,0.43081 -0.64732,0.647321 -0.0397,0.03975 -0.0401,0.107076 -0.0893,0.15625 -0.0678,0.0678 -0.28575,0.23216 -0.35714,0.267858 m 1.80801,-2.299108 c -0.0642,0.02041 -0.10377,0.03681 -0.13392,0.06696 -0.0392,0.03915 -0.0606,0.273191 -0.11161,0.290178 -0.0212,0.0071 -0.0546,-0.01857 -0.067,0 -0.0206,0.03095 0.0118,0.07631 0,0.111607 -0.10476,0.314303 -0.27116,0.564652 -0.37946,0.78125 m -0.93747,1.205363 c -0.0217,0.0023 -0.1915,-0.05403 -0.22321,-0.02232 -0.17117,0.171162 -0.43947,0.320896 -0.53572,0.513393 m -0.11161,-0.08929 c -0.2224,0.211502 -0.2632,0.508744 -0.44642,0.691965 -0.0242,0.02422 -0.006,0.123334 -0.0223,0.15625 -0.027,0.05393 -0.067,0.04063 -0.067,0.111607 -0.0926,0.397046 -0.063,1.402265 -0.26785,1.607145 -0.0402,0.04016 0.0151,0.208156 -0.0223,0.245535 -0.0413,0.0413 -0.0625,0.124992 -0.0893,0.178572"
       inkscape:connector-curvature="0"
       inkscape:path-effect="#path-effect4227" />
    <path
       style="fill:none;fill-rule:evenodd;stroke:#953577;stroke-width:2.4000001;stroke-linecap:round;stroke-linejoin:miter;stroke-miterlimit:4;stroke-dasharray:none;stroke-opacity:1"
       d="m 244.52005,53.115951 c 0.19616,-0.314172 0.485,-0.569683 0.82075,-0.726048 0.0801,-0.03729 0.16253,-0.07019 0.23803,-0.116043 0.0755,-0.04585 0.14145,-0.105602 0.20391,-0.168062 l 0.53664,-0.536643 c 0.17855,-0.178552 0.34794,-0.371217 0.4562,-0.599343 0.10825,-0.228127 0.1579,-0.478738 0.20672,-0.726483 0.0188,-0.0952 0.0381,-0.190349 0.0631,-0.284105 0.15069,-0.565536 0.49888,-1.058316 0.69448,-1.609931 0.18573,-0.523793 0.22905,-1.086247 0.25254,-1.641498 0.0302,-0.715098 0.0302,-1.431476 0,-2.146574 m 0.0947,0 c -0.17498,-0.541588 -0.36448,-1.078488 -0.56821,-1.60993 -0.10564,-0.275577 -0.21667,-0.557216 -0.22097,-0.852317 -0.001,-0.07367 0.005,-0.147437 0,-0.22097 -0.009,-0.140335 -0.0544,-0.275881 -0.11005,-0.405008 -0.0556,-0.129127 -0.12159,-0.253725 -0.17406,-0.384174 -0.082,-0.203972 -0.13012,-0.419635 -0.1894,-0.631345 -0.1139,-0.406788 -0.27132,-0.808884 -0.2841,-1.231124 -0.004,-0.126229 0.005,-0.252638 0,-0.378807 -0.0158,-0.36491 -0.15694,-0.720009 -0.37881,-1.010153 -0.12152,-0.158916 -0.26593,-0.298645 -0.39907,-0.447952 -0.13315,-0.149307 -0.25704,-0.311637 -0.32698,-0.499066 -0.0233,-0.06235 -0.0403,-0.12687 -0.0631,-0.189403 -0.12507,-0.343371 -0.43269,-0.614077 -0.78918,-0.69448 M 243.794,35.753954 c -0.0143,-0.02938 -0.0371,-0.0546 -0.0648,-0.07192 -0.0277,-0.01732 -0.0604,-0.02667 -0.0931,-0.02667 -0.0327,0 -0.0653,0.0094 -0.093,0.02667 -0.0277,0.01732 -0.0504,0.04254 -0.0648,0.07192 -0.0211,0.04322 -0.0236,0.09327 -0.0192,0.141155 0.004,0.04789 0.0152,0.09503 0.0192,0.14295 0.009,0.105672 -0.0153,0.210887 -0.0316,0.315673 -0.0801,0.515055 0.0393,1.063073 0.34724,1.483661 0.0919,0.125543 0.1991,0.239016 0.29726,0.359735 0.0982,0.120718 0.1884,0.250886 0.23939,0.39788 0.0218,0.06291 0.0363,0.128455 0.0631,0.189403 0.0516,0.117338 0.14526,0.210119 0.23677,0.299878 0.0915,0.08976 0.18516,0.182551 0.23674,0.2999 0.0268,0.06095 0.0412,0.126509 0.0631,0.189404 0.0623,0.179262 0.18229,0.331526 0.29658,0.483023 0.11429,0.151497 0.22731,0.311037 0.27163,0.495562 0.0149,0.06226 0.0217,0.126138 0.0316,0.189404 0.0768,0.492133 0.33657,0.932829 0.53665,1.38896 0.0444,0.101108 0.0864,0.205574 0.0947,0.315672 0.003,0.04199 0.001,0.08418 0,0.126269 -0.0314,1.00751 0.24743,2.02258 0.78918,2.872622 m 0.2526,0.126269 0.34724,1.010152 m -0.0316,0.0947 -0.0631,0.947018"
       id="path4229"
       inkscape:original-d="m 244.52005,53.115951 c 0.183,-0.378198 0.57091,-0.476208 0.82075,-0.726048 0.10597,-0.105972 0.3053,-0.147463 0.44194,-0.284105 0.20735,-0.207345 0.37995,-0.379947 0.53664,-0.536643 0.2535,-0.253497 0.42008,-1.082991 0.66292,-1.325826 0.0579,-0.05787 0.005,-0.226232 0.0631,-0.284105 0.26755,-0.267543 0.46242,-1.37787 0.69448,-1.609931 0.0826,-0.08257 0.24929,-1.638246 0.25254,-1.641498 0.10984,-0.109841 0.0837,-1.979196 0,-2.146574 m 0.0947,0 c -0.21377,-0.51009 -0.38132,-1.049266 -0.56821,-1.60993 -0.10234,-0.307033 -0.0822,-0.57478 -0.22097,-0.852317 -0.0297,-0.05945 0.0213,-0.157225 0,-0.22097 -0.0956,-0.286729 -0.11221,-0.617283 -0.28411,-0.789182 -0.13603,-0.136036 -0.0528,-0.494787 -0.1894,-0.631345 -0.0208,-0.02076 -0.1731,-1.120117 -0.2841,-1.231124 -0.0631,-0.06313 0.0631,-0.315673 0,-0.378807 -0.16433,-0.164325 -0.19545,-0.826788 -0.37881,-1.010153 -0.24672,-0.24672 -0.45904,-0.680006 -0.72605,-0.947018 -0.0421,-0.04209 -0.021,-0.147314 -0.0631,-0.189403 -0.11177,-0.111772 -0.74369,-0.603499 -0.78918,-0.69448 M 243.794,35.753954 c -0.18871,-0.169233 -0.22944,-0.08623 -0.31567,0 -0.0473,0.04735 0.0473,0.236754 0,0.284105 -0.0531,0.05306 -0.0316,0.212751 -0.0316,0.315673 0,0.653445 0.10043,0.990032 0.34724,1.483661 0.14416,0.288315 0.30258,0.523546 0.53665,0.757615 0.0302,0.03015 0.0271,0.153343 0.0631,0.189403 0.1549,0.154901 0.2939,0.420166 0.47351,0.599778 0.0421,0.04209 0.0211,0.147314 0.0631,0.189404 0.25941,0.259414 0.33325,0.743626 0.56821,0.978585 0.0368,0.03683 -0.005,0.152575 0.0316,0.189404 0.27237,0.272368 0.31118,1.163491 0.53665,1.38896 0.0606,0.06057 0.0253,0.246285 0.0947,0.315672 0.021,0.02105 -0.0211,0.105225 0,0.126269 0.3059,0.305902 0.78918,2.150945 0.78918,2.872622 m 0.2526,0.126269 c 0.0309,0.43612 0.20297,0.721607 0.34724,1.010152 m -0.0316,0.0947 c -0.0119,0.313884 0.0454,0.730026 -0.0631,0.947018"
       inkscape:connector-curvature="0"
       inkscape:path-effect="#path-effect4231" />
  </g>
  <g
     inkscape:groupmode="layer"
     id="layer1"
     inkscape:label="Layer 3"
     style="display:inline">
    <path
       style="display:inline;fill:none;fill-rule:evenodd;stroke:#953577;stroke-width:1.5;stroke-linecap:round;stroke-linejoin:miter;stroke-miterlimit:4;stroke-dasharray:none;stroke-opacity:1"
       d="m 253.86396,45.697643 c 0,0 7.00793,12.058696 22.72843,0.69448"
       id="path4233"
       inkscape:connector-curvature="0" />
  </g>
</svg>
